<svg width="11" height="10" viewBox="0 0 11 10" fill="none" xmlns="http://www.w3.org/2000/svg">
<path d="M5.5 10C5.3434 10 5.19242 9.94203 5.07476 9.83672C4.63039 9.43968 4.20196 9.06656 3.82397 8.73744L3.82204 8.73572C2.71383 7.77073 1.75685 6.93736 1.091 6.11644C0.346687 5.19869 0 4.32854 0 3.37795C0 2.45438 0.309929 1.60232 0.872635 0.97863C1.44205 0.347563 2.22338 0 3.07294 0C3.7079 0 4.28941 0.205125 4.80125 0.609628C5.05957 0.81381 5.29372 1.0637 5.5 1.35518C5.70637 1.0637 5.94043 0.81381 6.19883 0.609628C6.71068 0.205125 7.29218 0 7.92715 0C8.77662 0 9.55803 0.347563 10.1274 0.97863C10.6902 1.60232 11 2.45438 11 3.37795C11 4.32854 10.6534 5.19869 9.90908 6.11635C9.24323 6.93736 8.28634 7.77064 7.1783 8.73555C6.79964 9.06519 6.37054 9.43891 5.92516 9.83689C5.80758 9.94203 5.65652 10 5.5 10ZM3.07294 0.658423C2.40549 0.658423 1.79235 0.930607 1.3463 1.4249C0.893616 1.92665 0.644279 2.62023 0.644279 3.37795C0.644279 4.17744 0.935074 4.89246 1.58707 5.69633C2.21725 6.47335 3.15459 7.28956 4.23989 8.23466L4.24191 8.23637C4.62132 8.56679 5.05143 8.94136 5.49908 9.34132C5.94941 8.94059 6.38019 8.56541 6.76036 8.23449C7.84557 7.28939 8.78283 6.47335 9.41301 5.69633C10.0649 4.89246 10.3557 4.17744 10.3557 3.37795C10.3557 2.62023 10.1064 1.92665 9.6537 1.4249C9.20773 0.930607 8.59451 0.658423 7.92715 0.658423C7.43821 0.658423 6.9893 0.81724 6.59293 1.13042C6.2397 1.40963 5.99364 1.7626 5.84937 2.00957C5.77518 2.13657 5.6446 2.21238 5.5 2.21238C5.3554 2.21238 5.22482 2.13657 5.15063 2.00957C5.00645 1.7626 4.76038 1.40963 4.40707 1.13042C4.0107 0.81724 3.56179 0.658423 3.07294 0.658423Z" fill="#FF6E4E"/>
</svg>
