<svg xmlns="http://www.w3.org/2000/svg" xmlns:svgjs="http://svgjs.com/svgjs" xmlns:xlink="http://www.w3.org/1999/xlink" width="288" height="288"><svg xmlns="http://www.w3.org/2000/svg" width="288" height="288" fill="none" viewBox="0 0 19 30"><path fill="#b3b3c3" d="M14.1662 0H4.16671C1.86996 0 0 1.86996 0 4.16671V25.8333C0 28.13 1.86996 30 4.16671 30H14.1662C16.463 30 18.3329 28.13 18.3329 25.8333V4.16671C18.3329 1.86849 16.463 0 14.1662 0ZM16.6668 25.8318C16.6668 27.2105 15.5449 28.3324 14.1662 28.3324H4.16671C2.78807 28.3324 1.6661 27.2105 1.6661 25.8318V4.16671C1.6661 2.78807 2.78807 1.6661 4.16671 1.6661H14.1662C15.5449 1.6661 16.6668 2.78807 16.6668 4.16671V25.8318Z" class="colorfff svgShape"/><path fill="#b3b3c3" d="M9.16646 27.4979C10.0866 27.4979 10.8326 26.752 10.8326 25.8318 10.8326 24.9117 10.0866 24.1657 9.16646 24.1657 8.2463 24.1657 7.50037 24.9117 7.50037 25.8318 7.50037 26.752 8.2463 27.4979 9.16646 27.4979zM10.8326 2.49915H7.4989C7.03837 2.49915 6.66585 2.87167 6.66585 3.33219 6.66585 3.79272 7.03837 4.16524 7.4989 4.16524H10.8326C11.2931 4.16524 11.6656 3.79272 11.6656 3.33219 11.6656 2.87167 11.2931 2.49915 10.8326 2.49915z" class="colorfff svgShape"/></svg></svg>